<mxfile host="app.diagrams.net" modified="2020-10-16T03:37:10.858Z" agent="5.0 (Windows NT 10.0; Win64; x64) AppleWebKit/537.36 (KHTML, like Gecko) Chrome/86.0.4240.75 Safari/537.36" etag="xk59X5ZU-bR_ctkzrdt0" version="13.8.0" type="github">
  <diagram id="C5RBs43oDa-KdzZeNtuy" name="Page-1">
    <mxGraphModel dx="322" dy="605" grid="0" gridSize="10" guides="1" tooltips="1" connect="1" arrows="1" fold="1" page="1" pageScale="1" pageWidth="827" pageHeight="1169" math="0" shadow="0">
      <root>
        <mxCell id="WIyWlLk6GJQsqaUBKTNV-0" />
        <mxCell id="WIyWlLk6GJQsqaUBKTNV-1" parent="WIyWlLk6GJQsqaUBKTNV-0" />
        <mxCell id="wJLKMxvMNdUZgiUZaTAB-29" value="" style="group" vertex="1" connectable="0" parent="WIyWlLk6GJQsqaUBKTNV-1">
          <mxGeometry x="313" y="23" width="160" height="829" as="geometry" />
        </mxCell>
        <mxCell id="wJLKMxvMNdUZgiUZaTAB-0" value="Main" style="swimlane;fontStyle=1;align=center;verticalAlign=top;childLayout=stackLayout;horizontal=1;startSize=26;horizontalStack=0;resizeParent=1;resizeParentMax=0;resizeLast=0;collapsible=1;marginBottom=0;rounded=0;" vertex="1" parent="wJLKMxvMNdUZgiUZaTAB-29">
          <mxGeometry width="160" height="100" as="geometry" />
        </mxCell>
        <mxCell id="wJLKMxvMNdUZgiUZaTAB-1" value="------&#xa;------" style="text;strokeColor=none;fillColor=none;align=left;verticalAlign=top;spacingLeft=4;spacingRight=4;overflow=hidden;rotatable=0;points=[[0,0.5],[1,0.5]];portConstraint=eastwest;" vertex="1" parent="wJLKMxvMNdUZgiUZaTAB-0">
          <mxGeometry y="26" width="160" height="40" as="geometry" />
        </mxCell>
        <mxCell id="wJLKMxvMNdUZgiUZaTAB-2" value="" style="line;strokeWidth=1;fillColor=none;align=left;verticalAlign=middle;spacingTop=-1;spacingLeft=3;spacingRight=3;rotatable=0;labelPosition=right;points=[];portConstraint=eastwest;" vertex="1" parent="wJLKMxvMNdUZgiUZaTAB-0">
          <mxGeometry y="66" width="160" height="8" as="geometry" />
        </mxCell>
        <mxCell id="wJLKMxvMNdUZgiUZaTAB-3" value="g: integer" style="text;strokeColor=none;fillColor=none;align=left;verticalAlign=top;spacingLeft=4;spacingRight=4;overflow=hidden;rotatable=0;points=[[0,0.5],[1,0.5]];portConstraint=eastwest;" vertex="1" parent="wJLKMxvMNdUZgiUZaTAB-0">
          <mxGeometry y="74" width="160" height="26" as="geometry" />
        </mxCell>
        <mxCell id="wJLKMxvMNdUZgiUZaTAB-4" value="B" style="swimlane;fontStyle=1;align=center;verticalAlign=top;childLayout=stackLayout;horizontal=1;startSize=26;horizontalStack=0;resizeParent=1;resizeParentMax=0;resizeLast=0;collapsible=1;marginBottom=0;rounded=0;" vertex="1" parent="wJLKMxvMNdUZgiUZaTAB-29">
          <mxGeometry y="129" width="160" height="115" as="geometry" />
        </mxCell>
        <mxCell id="wJLKMxvMNdUZgiUZaTAB-5" value="static" style="text;strokeColor=none;fillColor=none;align=left;verticalAlign=top;spacingLeft=4;spacingRight=4;overflow=hidden;rotatable=0;points=[[0,0.5],[1,0.5]];portConstraint=eastwest;" vertex="1" parent="wJLKMxvMNdUZgiUZaTAB-4">
          <mxGeometry y="26" width="160" height="25" as="geometry" />
        </mxCell>
        <mxCell id="wJLKMxvMNdUZgiUZaTAB-6" value="" style="line;strokeWidth=1;fillColor=none;align=left;verticalAlign=middle;spacingTop=-1;spacingLeft=3;spacingRight=3;rotatable=0;labelPosition=right;points=[];portConstraint=eastwest;" vertex="1" parent="wJLKMxvMNdUZgiUZaTAB-4">
          <mxGeometry y="51" width="160" height="8" as="geometry" />
        </mxCell>
        <mxCell id="wJLKMxvMNdUZgiUZaTAB-7" value="dynamic" style="text;strokeColor=none;fillColor=none;align=left;verticalAlign=top;spacingLeft=4;spacingRight=4;overflow=hidden;rotatable=0;points=[[0,0.5],[1,0.5]];portConstraint=eastwest;" vertex="1" parent="wJLKMxvMNdUZgiUZaTAB-4">
          <mxGeometry y="59" width="160" height="28" as="geometry" />
        </mxCell>
        <mxCell id="wJLKMxvMNdUZgiUZaTAB-8" value="x: integer" style="text;align=left;verticalAlign=top;spacingLeft=4;spacingRight=4;overflow=hidden;rotatable=0;points=[[0,0.5],[1,0.5]];portConstraint=eastwest;rounded=0;strokeColor=#000000;" vertex="1" parent="wJLKMxvMNdUZgiUZaTAB-4">
          <mxGeometry y="87" width="160" height="28" as="geometry" />
        </mxCell>
        <mxCell id="wJLKMxvMNdUZgiUZaTAB-9" value="R" style="swimlane;fontStyle=1;align=center;verticalAlign=top;childLayout=stackLayout;horizontal=1;startSize=26;horizontalStack=0;resizeParent=1;resizeParentMax=0;resizeLast=0;collapsible=1;marginBottom=0;rounded=0;" vertex="1" parent="wJLKMxvMNdUZgiUZaTAB-29">
          <mxGeometry y="275" width="160" height="115" as="geometry" />
        </mxCell>
        <mxCell id="wJLKMxvMNdUZgiUZaTAB-10" value="static" style="text;strokeColor=none;fillColor=none;align=left;verticalAlign=top;spacingLeft=4;spacingRight=4;overflow=hidden;rotatable=0;points=[[0,0.5],[1,0.5]];portConstraint=eastwest;" vertex="1" parent="wJLKMxvMNdUZgiUZaTAB-9">
          <mxGeometry y="26" width="160" height="25" as="geometry" />
        </mxCell>
        <mxCell id="wJLKMxvMNdUZgiUZaTAB-11" value="" style="line;strokeWidth=1;fillColor=none;align=left;verticalAlign=middle;spacingTop=-1;spacingLeft=3;spacingRight=3;rotatable=0;labelPosition=right;points=[];portConstraint=eastwest;" vertex="1" parent="wJLKMxvMNdUZgiUZaTAB-9">
          <mxGeometry y="51" width="160" height="8" as="geometry" />
        </mxCell>
        <mxCell id="wJLKMxvMNdUZgiUZaTAB-12" value="dynamic" style="text;strokeColor=none;fillColor=none;align=left;verticalAlign=top;spacingLeft=4;spacingRight=4;overflow=hidden;rotatable=0;points=[[0,0.5],[1,0.5]];portConstraint=eastwest;" vertex="1" parent="wJLKMxvMNdUZgiUZaTAB-9">
          <mxGeometry y="59" width="160" height="28" as="geometry" />
        </mxCell>
        <mxCell id="wJLKMxvMNdUZgiUZaTAB-13" value="------" style="text;align=left;verticalAlign=top;spacingLeft=4;spacingRight=4;overflow=hidden;rotatable=0;points=[[0,0.5],[1,0.5]];portConstraint=eastwest;rounded=0;strokeColor=#000000;" vertex="1" parent="wJLKMxvMNdUZgiUZaTAB-9">
          <mxGeometry y="87" width="160" height="28" as="geometry" />
        </mxCell>
        <mxCell id="wJLKMxvMNdUZgiUZaTAB-14" value="R" style="swimlane;fontStyle=1;align=center;verticalAlign=top;childLayout=stackLayout;horizontal=1;startSize=26;horizontalStack=0;resizeParent=1;resizeParentMax=0;resizeLast=0;collapsible=1;marginBottom=0;rounded=0;" vertex="1" parent="wJLKMxvMNdUZgiUZaTAB-29">
          <mxGeometry y="421" width="160" height="115" as="geometry" />
        </mxCell>
        <mxCell id="wJLKMxvMNdUZgiUZaTAB-15" value="static" style="text;strokeColor=none;fillColor=none;align=left;verticalAlign=top;spacingLeft=4;spacingRight=4;overflow=hidden;rotatable=0;points=[[0,0.5],[1,0.5]];portConstraint=eastwest;" vertex="1" parent="wJLKMxvMNdUZgiUZaTAB-14">
          <mxGeometry y="26" width="160" height="25" as="geometry" />
        </mxCell>
        <mxCell id="wJLKMxvMNdUZgiUZaTAB-16" value="" style="line;strokeWidth=1;fillColor=none;align=left;verticalAlign=middle;spacingTop=-1;spacingLeft=3;spacingRight=3;rotatable=0;labelPosition=right;points=[];portConstraint=eastwest;" vertex="1" parent="wJLKMxvMNdUZgiUZaTAB-14">
          <mxGeometry y="51" width="160" height="8" as="geometry" />
        </mxCell>
        <mxCell id="wJLKMxvMNdUZgiUZaTAB-17" value="dynamic" style="text;strokeColor=none;fillColor=none;align=left;verticalAlign=top;spacingLeft=4;spacingRight=4;overflow=hidden;rotatable=0;points=[[0,0.5],[1,0.5]];portConstraint=eastwest;" vertex="1" parent="wJLKMxvMNdUZgiUZaTAB-14">
          <mxGeometry y="59" width="160" height="28" as="geometry" />
        </mxCell>
        <mxCell id="wJLKMxvMNdUZgiUZaTAB-18" value="------" style="text;align=left;verticalAlign=top;spacingLeft=4;spacingRight=4;overflow=hidden;rotatable=0;points=[[0,0.5],[1,0.5]];portConstraint=eastwest;rounded=0;strokeColor=#000000;" vertex="1" parent="wJLKMxvMNdUZgiUZaTAB-14">
          <mxGeometry y="87" width="160" height="28" as="geometry" />
        </mxCell>
        <mxCell id="wJLKMxvMNdUZgiUZaTAB-19" value="R" style="swimlane;fontStyle=1;align=center;verticalAlign=top;childLayout=stackLayout;horizontal=1;startSize=26;horizontalStack=0;resizeParent=1;resizeParentMax=0;resizeLast=0;collapsible=1;marginBottom=0;rounded=0;" vertex="1" parent="wJLKMxvMNdUZgiUZaTAB-29">
          <mxGeometry y="568" width="160" height="115" as="geometry" />
        </mxCell>
        <mxCell id="wJLKMxvMNdUZgiUZaTAB-20" value="static" style="text;strokeColor=none;fillColor=none;align=left;verticalAlign=top;spacingLeft=4;spacingRight=4;overflow=hidden;rotatable=0;points=[[0,0.5],[1,0.5]];portConstraint=eastwest;" vertex="1" parent="wJLKMxvMNdUZgiUZaTAB-19">
          <mxGeometry y="26" width="160" height="25" as="geometry" />
        </mxCell>
        <mxCell id="wJLKMxvMNdUZgiUZaTAB-21" value="" style="line;strokeWidth=1;fillColor=none;align=left;verticalAlign=middle;spacingTop=-1;spacingLeft=3;spacingRight=3;rotatable=0;labelPosition=right;points=[];portConstraint=eastwest;" vertex="1" parent="wJLKMxvMNdUZgiUZaTAB-19">
          <mxGeometry y="51" width="160" height="8" as="geometry" />
        </mxCell>
        <mxCell id="wJLKMxvMNdUZgiUZaTAB-22" value="dynamic" style="text;strokeColor=none;fillColor=none;align=left;verticalAlign=top;spacingLeft=4;spacingRight=4;overflow=hidden;rotatable=0;points=[[0,0.5],[1,0.5]];portConstraint=eastwest;" vertex="1" parent="wJLKMxvMNdUZgiUZaTAB-19">
          <mxGeometry y="59" width="160" height="28" as="geometry" />
        </mxCell>
        <mxCell id="wJLKMxvMNdUZgiUZaTAB-23" value="------" style="text;align=left;verticalAlign=top;spacingLeft=4;spacingRight=4;overflow=hidden;rotatable=0;points=[[0,0.5],[1,0.5]];portConstraint=eastwest;rounded=0;strokeColor=#000000;" vertex="1" parent="wJLKMxvMNdUZgiUZaTAB-19">
          <mxGeometry y="87" width="160" height="28" as="geometry" />
        </mxCell>
        <mxCell id="wJLKMxvMNdUZgiUZaTAB-24" value="A" style="swimlane;fontStyle=1;align=center;verticalAlign=top;childLayout=stackLayout;horizontal=1;startSize=26;horizontalStack=0;resizeParent=1;resizeParentMax=0;resizeLast=0;collapsible=1;marginBottom=0;rounded=0;" vertex="1" parent="wJLKMxvMNdUZgiUZaTAB-29">
          <mxGeometry y="714" width="160" height="115" as="geometry" />
        </mxCell>
        <mxCell id="wJLKMxvMNdUZgiUZaTAB-25" value="static" style="text;strokeColor=none;fillColor=none;align=left;verticalAlign=top;spacingLeft=4;spacingRight=4;overflow=hidden;rotatable=0;points=[[0,0.5],[1,0.5]];portConstraint=eastwest;" vertex="1" parent="wJLKMxvMNdUZgiUZaTAB-24">
          <mxGeometry y="26" width="160" height="25" as="geometry" />
        </mxCell>
        <mxCell id="wJLKMxvMNdUZgiUZaTAB-26" value="" style="line;strokeWidth=1;fillColor=none;align=left;verticalAlign=middle;spacingTop=-1;spacingLeft=3;spacingRight=3;rotatable=0;labelPosition=right;points=[];portConstraint=eastwest;" vertex="1" parent="wJLKMxvMNdUZgiUZaTAB-24">
          <mxGeometry y="51" width="160" height="8" as="geometry" />
        </mxCell>
        <mxCell id="wJLKMxvMNdUZgiUZaTAB-27" value="dynamic" style="text;strokeColor=none;fillColor=none;align=left;verticalAlign=top;spacingLeft=4;spacingRight=4;overflow=hidden;rotatable=0;points=[[0,0.5],[1,0.5]];portConstraint=eastwest;" vertex="1" parent="wJLKMxvMNdUZgiUZaTAB-24">
          <mxGeometry y="59" width="160" height="28" as="geometry" />
        </mxCell>
        <mxCell id="wJLKMxvMNdUZgiUZaTAB-28" value="------" style="text;align=left;verticalAlign=top;spacingLeft=4;spacingRight=4;overflow=hidden;rotatable=0;points=[[0,0.5],[1,0.5]];portConstraint=eastwest;rounded=0;strokeColor=#000000;" vertex="1" parent="wJLKMxvMNdUZgiUZaTAB-24">
          <mxGeometry y="87" width="160" height="28" as="geometry" />
        </mxCell>
        <mxCell id="wJLKMxvMNdUZgiUZaTAB-30" style="edgeStyle=orthogonalEdgeStyle;rounded=0;orthogonalLoop=1;jettySize=auto;html=1;exitX=0;exitY=0.5;exitDx=0;exitDy=0;entryX=0;entryY=0.148;entryDx=0;entryDy=0;entryPerimeter=0;curved=1;" edge="1" parent="wJLKMxvMNdUZgiUZaTAB-29" source="wJLKMxvMNdUZgiUZaTAB-5" target="wJLKMxvMNdUZgiUZaTAB-0">
          <mxGeometry relative="1" as="geometry" />
        </mxCell>
        <mxCell id="wJLKMxvMNdUZgiUZaTAB-31" style="edgeStyle=orthogonalEdgeStyle;rounded=0;orthogonalLoop=1;jettySize=auto;html=1;exitX=1;exitY=0.5;exitDx=0;exitDy=0;entryX=0.996;entryY=0.142;entryDx=0;entryDy=0;entryPerimeter=0;curved=1;" edge="1" parent="wJLKMxvMNdUZgiUZaTAB-29" source="wJLKMxvMNdUZgiUZaTAB-7" target="wJLKMxvMNdUZgiUZaTAB-0">
          <mxGeometry relative="1" as="geometry" />
        </mxCell>
        <mxCell id="wJLKMxvMNdUZgiUZaTAB-37" style="edgeStyle=orthogonalEdgeStyle;curved=1;rounded=0;orthogonalLoop=1;jettySize=auto;html=1;exitX=1;exitY=0.5;exitDx=0;exitDy=0;entryX=0.999;entryY=0.112;entryDx=0;entryDy=0;entryPerimeter=0;" edge="1" parent="wJLKMxvMNdUZgiUZaTAB-29" source="wJLKMxvMNdUZgiUZaTAB-27" target="wJLKMxvMNdUZgiUZaTAB-19">
          <mxGeometry relative="1" as="geometry" />
        </mxCell>
        <mxCell id="wJLKMxvMNdUZgiUZaTAB-39" style="edgeStyle=orthogonalEdgeStyle;curved=1;rounded=0;orthogonalLoop=1;jettySize=auto;html=1;exitX=1;exitY=0.5;exitDx=0;exitDy=0;entryX=1.003;entryY=0.121;entryDx=0;entryDy=0;entryPerimeter=0;" edge="1" parent="wJLKMxvMNdUZgiUZaTAB-29" source="wJLKMxvMNdUZgiUZaTAB-22" target="wJLKMxvMNdUZgiUZaTAB-14">
          <mxGeometry relative="1" as="geometry" />
        </mxCell>
        <mxCell id="wJLKMxvMNdUZgiUZaTAB-40" style="edgeStyle=orthogonalEdgeStyle;curved=1;rounded=0;orthogonalLoop=1;jettySize=auto;html=1;exitX=1;exitY=0.5;exitDx=0;exitDy=0;entryX=0.999;entryY=0.116;entryDx=0;entryDy=0;entryPerimeter=0;" edge="1" parent="wJLKMxvMNdUZgiUZaTAB-29" source="wJLKMxvMNdUZgiUZaTAB-17" target="wJLKMxvMNdUZgiUZaTAB-9">
          <mxGeometry relative="1" as="geometry" />
        </mxCell>
        <mxCell id="wJLKMxvMNdUZgiUZaTAB-41" style="edgeStyle=orthogonalEdgeStyle;curved=1;rounded=0;orthogonalLoop=1;jettySize=auto;html=1;exitX=1;exitY=0.5;exitDx=0;exitDy=0;entryX=1.003;entryY=0.128;entryDx=0;entryDy=0;entryPerimeter=0;" edge="1" parent="wJLKMxvMNdUZgiUZaTAB-29" source="wJLKMxvMNdUZgiUZaTAB-12" target="wJLKMxvMNdUZgiUZaTAB-4">
          <mxGeometry relative="1" as="geometry" />
        </mxCell>
        <mxCell id="wJLKMxvMNdUZgiUZaTAB-42" style="edgeStyle=orthogonalEdgeStyle;curved=1;rounded=0;orthogonalLoop=1;jettySize=auto;html=1;exitX=0;exitY=0.5;exitDx=0;exitDy=0;entryX=-0.001;entryY=0.1;entryDx=0;entryDy=0;entryPerimeter=0;" edge="1" parent="wJLKMxvMNdUZgiUZaTAB-29" source="wJLKMxvMNdUZgiUZaTAB-25" target="wJLKMxvMNdUZgiUZaTAB-4">
          <mxGeometry relative="1" as="geometry">
            <Array as="points">
              <mxPoint x="-87" y="753" />
              <mxPoint x="-87" y="141" />
            </Array>
          </mxGeometry>
        </mxCell>
        <mxCell id="wJLKMxvMNdUZgiUZaTAB-44" style="edgeStyle=orthogonalEdgeStyle;curved=1;rounded=0;orthogonalLoop=1;jettySize=auto;html=1;exitX=0;exitY=0.5;exitDx=0;exitDy=0;entryX=-0.001;entryY=0.139;entryDx=0;entryDy=0;entryPerimeter=0;" edge="1" parent="wJLKMxvMNdUZgiUZaTAB-29" source="wJLKMxvMNdUZgiUZaTAB-20" target="wJLKMxvMNdUZgiUZaTAB-4">
          <mxGeometry relative="1" as="geometry">
            <Array as="points">
              <mxPoint x="-62" y="607" />
              <mxPoint x="-62" y="145" />
            </Array>
          </mxGeometry>
        </mxCell>
        <mxCell id="wJLKMxvMNdUZgiUZaTAB-45" style="edgeStyle=orthogonalEdgeStyle;curved=1;rounded=0;orthogonalLoop=1;jettySize=auto;html=1;exitX=0;exitY=0.5;exitDx=0;exitDy=0;entryX=0.003;entryY=0.106;entryDx=0;entryDy=0;entryPerimeter=0;" edge="1" parent="wJLKMxvMNdUZgiUZaTAB-29" source="wJLKMxvMNdUZgiUZaTAB-15" target="wJLKMxvMNdUZgiUZaTAB-4">
          <mxGeometry relative="1" as="geometry">
            <Array as="points">
              <mxPoint x="-26" y="460" />
              <mxPoint x="-26" y="141" />
            </Array>
          </mxGeometry>
        </mxCell>
        <mxCell id="wJLKMxvMNdUZgiUZaTAB-46" style="edgeStyle=orthogonalEdgeStyle;curved=1;rounded=0;orthogonalLoop=1;jettySize=auto;html=1;exitX=0;exitY=0.5;exitDx=0;exitDy=0;entryX=-0.001;entryY=0.095;entryDx=0;entryDy=0;entryPerimeter=0;" edge="1" parent="wJLKMxvMNdUZgiUZaTAB-29" source="wJLKMxvMNdUZgiUZaTAB-10" target="wJLKMxvMNdUZgiUZaTAB-4">
          <mxGeometry relative="1" as="geometry">
            <Array as="points">
              <mxPoint x="-12" y="314" />
              <mxPoint x="-12" y="140" />
            </Array>
          </mxGeometry>
        </mxCell>
      </root>
    </mxGraphModel>
  </diagram>
</mxfile>
